<?xml version="1.0" encoding="utf-8"?>
<!-- Generator: Adobe Illustrator 16.0.0, SVG Export Plug-In . SVG Version: 6.00 Build 0)  -->
<!DOCTYPE svg PUBLIC "-//W3C//DTD SVG 1.1//EN" "http://www.w3.org/Graphics/SVG/1.1/DTD/svg11.dtd">
<svg version="1.1" id="Layer_1_copy" xmlns="http://www.w3.org/2000/svg" xmlns:xlink="http://www.w3.org/1999/xlink" x="0px"
	 y="0px" width="800px" height="800px" viewBox="0 0 800 800" enable-background="new 0 0 800 800" xml:space="preserve">
<g>
	<path id="path3962_1_" fill="#003366" d="M154.791,290.185c0,0-4.686,99.116,142.283,243.411
		c146.967,144.295,163.668,202.896,155.649,243.4h106.879c0,0,9.721-167.447-155.951-285.019c0,0-114.049-101.42-132.628-181.956
		c0,0-56.137-0.038-95.205-31.456C175.817,278.566,154.753,265.938,154.791,290.185"/>
	<path id="path3966_1_" fill="#003366" d="M382.275,519.124c29.518,20.942,53.36,43.489,72.799,66.386
		c14.168-15.113,30.029-31.341,47.842-48.826c146.969-144.294,142.293-246.499,142.293-246.499
		c0.029-24.247-21.035-10.844-21.035-10.844c-39.068,31.417-95.205,32.22-95.205,32.22
		c-18.58,80.536-132.629,183.515-132.629,183.515c-7.726,5.478-14.942,11.099-21.915,16.793
		C379.356,516.517,382.275,519.124,382.275,519.124"/>
	<path id="path3970_1_" fill="#003366" d="M380.867,675.671c-18.967-24.521-44.263-53.229-77.72-87.422
		c-68.237,98.066-62.758,194.981-62.758,194.981h106.879C342.526,758.302,346.448,726.764,380.867,675.671"/>
	<path id="path3974_1_" fill="#003366" d="M346.164,318.995H452.07c0,0,13.828-1.946,10.467,16.379
		c-4.799,26.051-61.965,78.843-61.965,78.843s-41.807-38.812-60.416-75.273C340.156,338.945,332.638,318.995,346.164,318.995"/>
</g>
<g>
	<path fill="#003366" d="M631.335,61.943c-12.958-22.914-35.483-39.081-60.537-46.235c-13.68-3.906-27.77-3.85-41.771-2.307
		c-26.574,2.927-53.152,5.855-79.729,8.783c-60.711,6.688-121.423,13.376-182.133,20.064
		c-47.636,5.247-88.795,36.779-105.982,81.579c-19.69,51.324-2.528,110.422,40.064,144.557c20.635,16.537,46.62,26.086,72.976,27.33
		c9.818,0.463,19.438-0.555,29.151-1.626c29.209-3.219,58.419-6.438,87.629-9.657c56.907-6.271,113.814-12.542,170.722-18.814
		c0.002,0,0.004,0,0.007,0c1.847-0.204,3.165-1.053,4.004-2.208c0.934-1.068,1.468-2.533,1.266-4.368
		c-0.98-8.921-1.964-17.842-2.945-26.764c-0.356-3.229-3.349-5.626-6.575-5.27c-56.53,6.229-113.06,12.458-169.587,18.687
		c-29.433,3.243-58.866,6.486-88.298,9.729c-9.32,1.026-18.459,2.086-27.884,1.231c-26.502-2.406-50.316-17.327-65.204-39.151
		c-15.283-22.404-18.649-51.864-9.941-77.385c8.576-25.131,28.453-44.957,53.165-54.302c9.579-3.623,19.521-4.715,29.58-5.824
		c11.656-1.284,23.313-2.568,34.969-3.852c68.956-7.597,137.911-15.194,206.867-22.791c5.646-0.622,11.289-1.244,16.935-1.865
		c25.633-2.824,50.618,11.146,61.99,34.218c11.999,24.345,5.739,54.365-14.245,72.46c-11.283,10.215-25.024,14.297-39.744,15.918
		c-64.116,7.06-128.235,14.119-192.353,21.18c-7.79,0.857-16.181,2.556-24.03,1.801c-32.87-3.16-40.604-49.202-12.434-64.592
		c7.984-4.362,18.077-4.475,26.968-5.454c14.54-1.601,29.08-3.203,43.619-4.804c52.053-5.733,104.106-11.466,156.157-17.2
		c3.229-0.355,5.626-3.347,5.271-6.575c-0.981-8.922-1.966-17.844-2.948-26.766c-0.356-3.229-3.347-5.625-6.576-5.27
		c-59.126,6.512-118.253,13.023-177.38,19.535c-10.889,1.199-21.779,2.398-32.668,3.598c-19.703,2.169-36.915,9.634-50.583,24.326
		c-18.916,20.331-22.433,51.138-12.871,76.512c10.656,28.276,38.582,45.449,68.216,45.716c7.945,0.071,16.163-1.408,24.037-2.275
		c15.024-1.654,30.048-3.308,45.071-4.963c37.402-4.118,74.806-8.236,112.209-12.354c26.389-2.905,54.563-3.367,78.211-16.746
		c22.804-12.9,39.967-34.582,47.17-59.787C648.707,113.586,644.773,85.703,631.335,61.943z"/>
</g>
</svg>
